<svg width="166" height="174" viewBox="0 0 166 174" fill="none" xmlns="http://www.w3.org/2000/svg">
<path fill-rule="evenodd" clip-rule="evenodd" d="M24.1705 150.244C39.6465 164.848 60.6366 173.053 82.5231 173.053C104.41 173.053 125.4 164.848 140.876 150.244C156.352 135.64 165.046 115.832 165.046 95.1788C165.046 90.4001 160.941 86.5262 155.877 86.5262C150.813 86.5262 146.708 90.4001 146.708 95.1788C146.708 111.243 139.945 126.648 127.908 138.007C115.872 149.366 99.5459 155.747 82.5231 155.747C65.5003 155.747 49.1746 149.366 37.1377 138.007C25.1008 126.648 18.3385 111.243 18.3385 95.1788C18.3385 90.4001 14.2333 86.5262 9.16923 86.5262C4.1052 86.5262 0 90.4001 0 95.1788C0 115.832 8.69437 135.64 24.1705 150.244Z" fill="#EE7A38"/>
<path fill-rule="evenodd" clip-rule="evenodd" d="M44.6374 104.669C48.1688 102.589 52.7917 103.645 54.9628 107.027C61.5988 117.365 71.4589 122.145 81.3456 122.145C91.3157 122.145 102.19 117.264 110.463 106.525C112.924 103.33 117.624 102.651 120.959 105.008C124.295 107.365 125.004 111.866 122.543 115.06C111.772 129.043 96.6145 136.523 81.3456 136.523C65.9935 136.523 51.4082 128.942 42.1743 114.558C40.0032 111.175 41.1059 106.748 44.6374 104.669Z" fill="#EE7A38"/>
<path fill-rule="evenodd" clip-rule="evenodd" d="M69.0507 1.94989C64.9411 -1.16019 58.989 -0.476458 55.7561 3.47704L63.1963 9.10768C55.7561 3.47704 55.7571 3.47587 55.7561 3.47704L55.7355 3.50225L55.7027 3.54274L55.6015 3.66849C55.5188 3.7718 55.406 3.91382 55.2671 4.09138C54.9897 4.44608 54.6063 4.94504 54.1493 5.56264C53.2403 6.79097 52.0143 8.52348 50.7429 10.5496C48.4073 14.2714 45.1114 20.2216 44.3353 26.1945C42.7761 38.1945 51.6219 45.6276 56.239 49.5073C56.4823 49.7118 56.7139 49.9064 56.9316 50.0912C62.975 55.2236 63.4775 56.4772 63.2702 58.0724C63.0209 59.9914 61.5831 63.1492 59.4413 66.5623C58.474 68.1037 57.5255 69.4454 56.8195 70.3994C56.469 70.873 56.1849 71.2423 55.9966 71.483L55.7916 71.7424L55.7561 71.7867C52.5252 75.7401 53.2347 81.4669 57.3435 84.5764C61.4531 87.6865 67.4053 87.0028 70.6381 83.0493L63.198 77.4186C70.6381 83.0493 70.6372 83.0505 70.6381 83.0493L70.6469 83.0386L70.6587 83.0241L70.6915 82.9836L70.7927 82.8578C70.8754 82.7545 70.9882 82.6125 71.1271 82.4349C71.4045 82.0802 71.7879 81.5813 72.2449 80.9637C73.1539 79.7354 74.3799 78.0028 75.6514 75.9767C77.9869 72.2549 81.2829 66.3047 82.059 60.3318C83.6182 48.3318 74.7723 40.8987 70.1552 37.019C69.9119 36.8145 69.6803 36.6199 69.4627 36.4351C63.4193 31.3028 62.9167 30.0491 63.124 28.4539C63.3734 26.5349 64.8111 23.3771 66.953 19.964C67.9202 18.4226 68.8688 17.0809 69.5748 16.1269C69.9252 15.6533 70.2093 15.2841 70.3976 15.0433L70.6026 14.7839L70.6381 14.7396C73.869 10.7862 73.1595 5.05943 69.0507 1.94989Z" fill="#EE7A38"/>
<path fill-rule="evenodd" clip-rule="evenodd" d="M107.023 1.94989C102.913 -1.16019 96.9608 -0.476458 93.7279 3.47704L101.168 9.10768C93.7279 3.47704 93.7289 3.47587 93.7279 3.47704L93.7074 3.50225L93.6745 3.54274L93.5733 3.66849C93.4906 3.7718 93.3778 3.91382 93.2389 4.09138C92.9615 4.44608 92.5781 4.94504 92.1211 5.56264C91.2121 6.79097 89.9861 8.52348 88.7147 10.5496C86.3791 14.2714 83.0832 20.2216 82.3071 26.1945C80.7479 38.1945 89.5937 45.6276 94.2108 49.5073C94.4541 49.7118 94.6857 49.9064 94.9034 50.0912C100.947 55.2236 101.449 56.4772 101.242 58.0724C100.993 59.9914 99.5549 63.1492 97.4131 66.5623C96.4458 68.1037 95.4973 69.4454 94.7913 70.3994C94.4408 70.873 94.1567 71.2423 93.9684 71.483L93.7634 71.7424L93.7279 71.7867C90.497 75.7401 91.2065 81.4669 95.3153 84.5764C99.4249 87.6865 105.377 87.0028 108.61 83.0493L101.17 77.4186C108.61 83.0493 108.609 83.0505 108.61 83.0493L108.619 83.0386L108.63 83.0241L108.663 82.9836L108.765 82.8578C108.847 82.7545 108.96 82.6125 109.099 82.4349C109.376 82.0802 109.76 81.5813 110.217 80.9637C111.126 79.7354 112.352 78.0028 113.623 75.9767C115.959 72.2549 119.255 66.3047 120.031 60.3318C121.59 48.3318 112.744 40.8987 108.127 37.019C107.884 36.8145 107.652 36.6199 107.434 36.4351C101.391 31.3028 100.889 30.0491 101.096 28.4539C101.345 26.5349 102.783 23.3771 104.925 19.964C105.892 18.4226 106.841 17.0809 107.547 16.1269C107.897 15.6533 108.181 15.2841 108.369 15.0433L108.574 14.7839L108.61 14.7396C111.841 10.7862 111.131 5.05943 107.023 1.94989Z" fill="#EE7A38"/>
</svg>
